<?xml version="1.0" encoding="UTF-8" standalone="no"?>
<svg
   xmlns:i="http://ns.adobe.com/AdobeIllustrator/10.0/"
   xmlns:dc="http://purl.org/dc/elements/1.1/"
   xmlns:cc="http://creativecommons.org/ns#"
   xmlns:rdf="http://www.w3.org/1999/02/22-rdf-syntax-ns#"
   xmlns:svg="http://www.w3.org/2000/svg"
   xmlns="http://www.w3.org/2000/svg"
   xmlns:sodipodi="http://sodipodi.sourceforge.net/DTD/sodipodi-0.dtd"
   xmlns:inkscape="http://www.inkscape.org/namespaces/inkscape"
   version="1.1"
   x="0px"
   y="0px"
   viewBox="0 0 100 125"
   enable-background="new 0 0 100 100"
   xml:space="preserve"
   id="svg2"
   inkscape:version="0.91 r13725"
   sodipodi:docname="icon_inkscape.svg"><metadata
     id="metadata14"><rdf:RDF><cc:Work
         rdf:about=""><dc:format>image/svg+xml</dc:format><dc:type
           rdf:resource="http://purl.org/dc/dcmitype/StillImage" /><dc:title /></cc:Work></rdf:RDF></metadata><defs
     id="defs12" /><sodipodi:namedview
     pagecolor="#ffffff"
     bordercolor="#666666"
     borderopacity="1"
     objecttolerance="10"
     gridtolerance="10"
     guidetolerance="10"
     inkscape:pageopacity="0"
     inkscape:pageshadow="2"
     inkscape:window-width="1432"
     inkscape:window-height="955"
     id="namedview10"
     showgrid="false"
     inkscape:zoom="15.104"
     inkscape:cx="45.698559"
     inkscape:cy="33.767632"
     inkscape:window-x="385"
     inkscape:window-y="81"
     inkscape:window-maximized="0"
     inkscape:current-layer="svg2" /><text
     xml:space="preserve"
     style="font-style:normal;font-weight:normal;font-size:40.02688599px;line-height:125%;font-family:sans-serif;letter-spacing:0px;word-spacing:0px;fill:#008000;fill-opacity:1;stroke:none;stroke-width:1px;stroke-linecap:butt;stroke-linejoin:miter;stroke-opacity:1"
     x="21.515427"
     y="93.262695"
     id="text3342"
     sodipodi:linespacing="125%"
     transform="scale(0.88763786,1.1265856)"><tspan
       sodipodi:role="line"
       id="tspan3344"
       x="21.515427"
       y="93.262695"
       style="font-style:normal;font-variant:normal;font-weight:bold;font-stretch:normal;font-family:sans-serif;-inkscape-font-specification:'sans-serif Bold';fill:#008000">{}</tspan></text>
<g
     style="overflow:visible"
     id="g3431"
     transform="matrix(-0.09683903,-0.01821988,0.02271339,-0.07768087,47.84321,105.2837)"><g
       i:dimmedPercent="50"
       i:rgbTrio="#4F008000FFFF"
       i:layer="yes"
       id="Layer_1"><g
         id="g3405"
         style="clip-rule:evenodd;fill-rule:evenodd"><path
           id="path3407"
           i:knockout="Off"
           d="M 103.21,266.83 C 92.662,231.803 83.41,199.51 75.022,168.406 66.526,137.302 59.758,109.726 53.206,81.646 46.656,53.42 41.076,26.924 36.18,0.752 27.648,-0.256 20.376,-0.256 14.364,0.752 8.316,1.724 3.528,3.632 0,6.62 c 15.12,35.388 29.16,74.52 42.552,119.2 13.356,44.711 25.632,92.879 37.26,146.88 7.776,-1.94 15.588,-3.89 23.398,-5.87 z"
           inkscape:connector-curvature="0"
           style="fill:#7f4008" /><path
           id="path3409"
           i:knockout="Off"
           d="M 83.52,249.26 C 81.792,239.397 76.824,219.344 72.36,199.797 67.716,180.283 63.648,159.08 56.412,133.268 49.068,107.168 33.588,55.22 29.268,45.464 c -4.284,-9.432 -4.212,8.352 1.584,30.852 5.904,22.68 24.12,72.648 32.976,103.25 8.64,30.348 15.228,65.771 18.648,77.688 3.24,11.62 2.664,1.51 1.044,-8 z"
           inkscape:connector-curvature="0"
           style="fill:#ffffc7" /><path
           id="path3411"
           i:knockout="Off"
           d="m 97.884,255.67 c -2.124,-9.973 -14.652,-48.096 -17.028,-52.164 -2.376,-4.068 0.504,18.432 2.664,28.225 2.052,9.936 7.056,26.064 9.576,30.313 2.34,3.88 6.804,3.38 4.788,-6.38 z"
           inkscape:connector-curvature="0"
           style="fill:#483622" /><path
           id="path3413"
           i:knockout="Off"
           d="m 40.968,61.452 c 5.436,23.652 20.412,77.04 22.86,83.52 2.196,5.976 -3.6,-22.608 -9.036,-46.296 C 49.284,74.738 33.66,10.442 31.392,3.962 c -2.268,-6.012 4.032,33.66 9.576,57.492 z"
           inkscape:connector-curvature="0"
           style="fill:#483622" /><path
           id="path3415"
           i:knockout="Off"
           d="m 164.41,251.14 c -10.188,1.871 -18.433,3.6 -25.021,5.328 -6.588,1.691 -11.376,3.238 -14.363,4.787 -0.252,3.672 -1.009,6.553 -2.124,8.496 -1.188,1.908 -2.736,3.023 -4.788,3.203 -2.988,-3.924 -6.66,-6.443 -11.16,-7.99 -4.645,-1.549 -10.8,-2.594 -15.984,-1.045 -5.328,1.477 -11.412,6.516 -14.904,10.115 -3.528,3.529 -3.06,9.469 -5.832,11.16 -2.844,1.621 -6.624,1.045 -11.196,-1.584 -4.716,0.613 -9.324,2.916 -14.364,6.912 -5.076,3.996 -13.932,12.133 -15.444,17.029 -1.512,4.859 0.108,8.855 6.408,11.699 6.264,2.629 24.228,4.824 30.852,4.248 6.516,-0.721 4.824,-6.66 7.992,-7.957 2.988,-1.26 6.408,-1.08 10.116,0.541 1.152,4.068 4.644,6.371 10.62,6.912 6.012,0.467 19.26,-1.008 25.021,-3.744 5.58,-2.809 8.424,-7.02 8.531,-12.779 3.168,-2.305 5.832,-3.061 7.992,-2.125 2.088,0.936 3.672,3.275 4.752,7.453 l 37.261,-9.037 c 3.42,-10.729 3.96,-19.98 1.619,-28.729 -2.48,-8.65 -7.66,-16.28 -15.98,-22.9 z"
           inkscape:connector-curvature="0"
           style="fill:#616161" /><path
           id="path3417"
           i:knockout="Off"
           d="m 129.31,291.06 c -0.468,-2.34 -1.188,-4.645 -2.159,-6.912 -1.045,-2.377 -4.5,-5.797 -3.708,-6.949 0.647,-1.223 6.372,1.045 7.991,0 1.549,-1.08 2.124,-3.203 1.584,-6.371 3.853,-1.367 8.677,-2.736 14.904,-4.248 6.156,-1.549 13.284,-3.096 21.816,-4.789 1.836,2.809 3.132,4.754 3.744,6.373 0.611,1.477 0.611,2.412 0,2.664 l -31.429,6.912 c 0.288,3.852 -0.504,6.768 -2.664,9.035 -2.18,2.18 -5.5,3.65 -10.07,4.3 z"
           inkscape:connector-curvature="0"
           style="fill:#a1a1a1" /><path
           id="path3419"
           i:knockout="Off"
           d="m 63.828,291.6 c -3.06,-0.9 -13.932,1.621 -19.152,4.789 -5.328,3.131 -11.952,10.656 -12.24,13.824 -0.18,3.059 7.452,5.074 10.656,4.246 2.988,-1.008 4.176,-7.99 7.452,-10.115 3.24,-2.195 9.36,-0.539 11.7,-2.664 2.232,-2.2 4.428,-9.22 1.584,-10.08 z"
           inkscape:connector-curvature="0"
           style="fill:#a1a1a1" /><path
           id="path3421"
           i:knockout="Off"
           d="m 131.94,295.31 c 3.204,0.467 6.049,-0.145 8.532,-2.125 2.484,-2.016 4.608,-5.111 6.372,-9.576 l 29.269,-6.912 c 1.151,3.816 1.512,7.129 1.08,10.08 -0.433,2.881 -0.324,5.221 -3.708,7.453 -3.601,2.088 -12.204,4.139 -17.064,5.328 -4.824,1.115 -8.676,1.656 -11.7,1.619 -4.355,-0.648 -7.848,-0.828 -10.62,-0.539 -2.771,0.215 -4.68,0.971 -5.868,2.123 0.145,5.076 -1.584,8.928 -5.327,11.699 -3.853,2.773 -12.168,3.996 -17.028,4.789 -4.932,0.648 -11.232,0.145 -11.7,-0.541 -0.468,-0.826 5.364,-2.699 9.036,-4.248 3.6,-1.582 9.108,-2.158 12.78,-5.326 3.6,-3.313 6.336,-12.133 9.036,-14.365 2.7,-2.33 4.86,-2.15 6.91,0.55 z"
           inkscape:connector-curvature="0"
           style="fill:#212121" /><path
           id="path3423"
           i:knockout="Off"
           d="m 48.42,316.58 c 1.476,1.656 11.592,3.168 14.364,1.619 2.628,-1.691 3.024,-9.539 1.584,-11.195 -1.656,-1.656 -7.92,-0.648 -10.62,1.08 -2.7,1.59 -6.876,6.74 -5.328,8.5 z"
           inkscape:connector-curvature="0"
           style="fill:#212121" /></g></g></g></svg>