<?xml version="1.0" encoding="UTF-8" standalone="no"?>
<svg
   xmlns:dc="http://purl.org/dc/elements/1.1/"
   xmlns:cc="http://creativecommons.org/ns#"
   xmlns:rdf="http://www.w3.org/1999/02/22-rdf-syntax-ns#"
   xmlns:svg="http://www.w3.org/2000/svg"
   xmlns="http://www.w3.org/2000/svg"
   id="svg2"
   xml:space="preserve"
   enable-background="new 0 0 100 100"
   viewBox="0 0 100 125"
   y="0px"
   x="0px"
   version="1.1"><metadata
     id="metadata14"><rdf:RDF><cc:Work
         rdf:about=""><dc:format>image/svg+xml</dc:format><dc:type
           rdf:resource="http://purl.org/dc/dcmitype/StillImage" /><dc:title></dc:title></cc:Work></rdf:RDF></metadata><defs
     id="defs12" /><path
     id="path4"
     d="M8.959,28.656h21.177c0.501,0,0.834-0.333,0.834-0.834v-2.334c0-0.5,0.333-0.834,0.834-0.834h45.021  c0.5,0,0.834,0.334,0.834,0.834v2.334c0,0.501,0.333,0.834,0.834,0.834h15.674c0.5,0,0.834,0.334,0.834,0.834v17.008  c0,0.5-0.334,0.834-0.834,0.834c-13.174,0.167-16.508,3.836-16.508,11.172c0,7.504,1.334,9.172,7.17,9.338  c0.5,0,0.834,0.334,0.834,0.834v5.836c0,0.5-0.334,0.834-0.834,0.834H31.804c-0.501,0-0.834-0.334-0.834-0.834v-5.836  c0-0.5,0.333-0.834,0.834-0.834h1.334c4.835,0,6.003-1.834,6.003-9.338c0-11.506-28.681-12.339-33.517-25.846  C4.29,29.49,4.957,28.656,8.959,28.656z" /><text
     transform="scale(0.94246192,1.0610508)"
     id="text3342"
     y="54.448307"
     x="35.166054"
     style="font-style:normal;font-weight:normal;font-size:37.69847488px;line-height:125%;font-family:sans-serif;letter-spacing:0px;word-spacing:0px;fill:#ffffff;fill-opacity:1;stroke:none;stroke-width:1px;stroke-linecap:butt;stroke-linejoin:miter;stroke-opacity:1"
     xml:space="preserve"><tspan
       style="font-style:normal;font-variant:normal;font-weight:bold;font-stretch:normal;font-family:sans-serif;-inkscape-font-specification:'sans-serif Bold'"
       y="54.448307"
       x="35.166054"
       id="tspan3344">{}</tspan></text>
</svg>