<?xml version="1.0" encoding="UTF-8" standalone="no"?>
<!-- Generator: Adobe Illustrator 10.0, SVG Export Plug-In . SVG Version: 3.0.0 Build 77)  -->

<svg
   xmlns:i="http://ns.adobe.com/AdobeIllustrator/10.0/"
   xmlns:dc="http://purl.org/dc/elements/1.1/"
   xmlns:cc="http://creativecommons.org/ns#"
   xmlns:rdf="http://www.w3.org/1999/02/22-rdf-syntax-ns#"
   xmlns:svg="http://www.w3.org/2000/svg"
   xmlns="http://www.w3.org/2000/svg"
   xmlns:sodipodi="http://sodipodi.sourceforge.net/DTD/sodipodi-0.dtd"
   xmlns:inkscape="http://www.inkscape.org/namespaces/inkscape"
   enable-background="new 0 0 365.043 275.545"
   height="275.545"
   i:pageBounds="0 792 612 0"
   i:rulerOrigin="0 0"
   i:viewOrigin="123 533"
   overflow="visible"
   space="preserve"
   viewBox="0 0 365.043 275.545"
   width="365.043"
   id="svg3417"
   version="1.1"
   inkscape:version="0.91 r13725"
   sodipodi:docname="icon_inkscape.svg"
   inkscape:export-filename="/Users/blake/Projects/mongoForge/resources/icon_inkscape.png"
   inkscape:export-xdpi="90"
   inkscape:export-ydpi="90">
  <defs
     id="defs3450" />
  <sodipodi:namedview
     pagecolor="#ffffff"
     bordercolor="#666666"
     borderopacity="1"
     objecttolerance="10"
     gridtolerance="10"
     guidetolerance="10"
     inkscape:pageopacity="0"
     inkscape:pageshadow="2"
     inkscape:window-width="1735"
     inkscape:window-height="1062"
     id="namedview3448"
     showgrid="false"
     inkscape:zoom="1.5841332"
     inkscape:cx="219.16298"
     inkscape:cy="167.26915"
     inkscape:window-x="0"
     inkscape:window-y="0"
     inkscape:window-maximized="0"
     inkscape:current-layer="svg3417" />
  <metadata
     id="metadata3419">
    <rdf:RDF>
      <cc:Work
         rdf:about="">
        <dc:title></dc:title>
        <dc:description />
        <dc:subject>
          <rdf:Bag>
            <rdf:li>tool</rdf:li>
          </rdf:Bag>
        </dc:subject>
        <dc:publisher>
          <cc:Agent
             rdf:about="http://www.openclipart.org/">
            <dc:title>Open Clip Art Library</dc:title>
          </cc:Agent>
        </dc:publisher>
        <dc:creator>
          <cc:Agent>
            <dc:title>Gerald G.</dc:title>
          </cc:Agent>
        </dc:creator>
        <dc:rights>
          <cc:Agent>
            <dc:title>Gerald G.</dc:title>
          </cc:Agent>
        </dc:rights>
        <dc:date />
        <dc:format>image/svg+xml</dc:format>
        <dc:type
           rdf:resource="http://purl.org/dc/dcmitype/StillImage" />
        <cc:license
           rdf:resource="http://web.resource.org/cc/PublicDomain" />
        <dc:language>en</dc:language>
      </cc:Work>
      <cc:License
         rdf:about="http://web.resource.org/cc/PublicDomain">
        <cc:permits
           rdf:resource="http://web.resource.org/cc/Reproduction" />
        <cc:permits
           rdf:resource="http://web.resource.org/cc/Distribution" />
        <cc:permits
           rdf:resource="http://web.resource.org/cc/DerivativeWorks" />
      </cc:License>
    </rdf:RDF>
  </metadata>
  <g
     i:dimmedPercent="50"
     i:layer="yes"
     i:rgbTrio="#4F008000FFFF"
     id="Layer_1">
    <g
       id="g3422">
      <path
         d="M0,34.344L0.72,53.46     C9.396,60.732,18,68.04,26.928,75.78C35.892,83.52,45.792,90,53.856,99.504c7.884,9.396,16.992,18,20.52,32.616     c3.384,14.651,3.384,32.509,0,54.54l-10.98,18.756l-0.36,21.961l20.556,8.855c5.796-2.16,12.6-3.205,20.556-2.844     c7.92,0.215,19.62,1.332,26.892,4.607c7.2,3.203,12.24,10.297,15.948,14.904c3.564,4.607,5.508,8.604,5.688,12.383l23.724,10.262     l68.004-68.689l-0.721-23.4v0.002c-3.312-1.586-6.336-3.24-9.216-4.969c-2.952-1.801-5.616-3.637-8.136-5.652     c24.3,1.801,44.496,2.52,61.992,1.764c17.352-0.9,29.592-3.275,41.436-6.012c11.7-2.699,22.393-7.309,28.332-9.936     c5.796-2.701,7.813-4.176,6.732-6.373c-1.225-2.412-3.168-3.059-13.464-7.775c-10.62-4.896-35.028-15.3-48.528-20.916     c-13.428-5.616-23.544-9.612-31.176-12.384v-9.576l-22.645-8.82V78.624L46.404,0C30.96,11.448,15.48,22.896,0,34.344z"
         i:knockout="Off"
         id="path3424"
         clip-rule="evenodd"
         fill-rule="evenodd"
         fill="#616161" />
      <path
         d="M3.888,37.188l205.452,81.108l37.872-37.548     c-7.668,7.128-14.688,12.528-21.6,16.632c-6.84,4.032-9.721,7.632-19.477,7.452c-9.936-0.396-16.164-1.476-39.672-9.216     C142.56,87.624,92.16,68.328,64.836,58.428C37.548,48.636,17.604,41.652,3.888,37.188z"
         i:knockout="Off"
         id="path3426"
         clip-rule="evenodd"
         fill-rule="evenodd"
         fill="#A1A1A1" />
      <path
         d="M249.336,96.336     c-9.54,9.144-16.164,15.876-20.16,20.196c-3.96,4.284-5.328,3.852-3.563,5.652c1.62,1.692,9.216,4.392,13.464,4.608     c4.176,0.072,7.812-1.224,11.34-3.888l-6.732,8.496l-27.972-8.136l27.612-26.208C245.304,96.84,247.32,96.588,249.336,96.336z"
         i:knockout="Off"
         id="path3428"
         clip-rule="evenodd"
         fill-rule="evenodd"
         fill="#A1A1A1" />
      <path
         d="M261.396,127.512     c-6.12-0.54-9.648,0.54-11.7,2.808c-2.196,2.304-3.097,7.993-1.044,10.657c2.016,2.52,4.248,2.555,13.104,4.572     c8.856,1.979,22.933,5.508,39.313,7.092c16.344,1.439,50.184,2.627,57.384,1.764c6.804-0.9-3.888-3.527-15.948-7.057     c-12.24-3.707-42.228-10.835-55.944-14.184C272.952,129.816,267.48,127.98,261.396,127.512z"
         i:knockout="Off"
         id="path3430"
         clip-rule="evenodd"
         fill-rule="evenodd"
         fill="#A1A1A1" />
      <path
         d="M63.036,46.044l16.308-11.34l-16.308-6.732     l-15.912,11.7L63.036,46.044z"
         i:knockout="Off"
         id="path3432"
         clip-rule="evenodd"
         fill-rule="evenodd"
         fill="#212121" />
      <path
         d="M249.012,79.668l-38.987,38.628     c-0.937,10.836-1.297,20.052-0.685,28.333c0.468,8.172,3.061,18.863,3.888,20.555c0.757,1.512,0.505-3.816,1.045-10.98     c0.432-7.234,1.079-17.676,1.8-31.895l31.859-31.86C248.292,88.2,248.652,83.952,249.012,79.668z"
         i:knockout="Off"
         id="path3434"
         clip-rule="evenodd"
         fill-rule="evenodd"
         fill="#212121" />
      <path
         d="M249.696,124.308l-6.372,7.812     c-0.216,7.487,0.072,12.312,0.72,14.868c0.612,2.34,2.412,2.34,3.168,0c0.648-2.412-0.432-10.44,1.08-13.824     c1.332-3.456,7.2-4.932,7.452-6.372C255.96,125.28,253.944,124.452,249.696,124.308z"
         i:knockout="Off"
         id="path3436"
         clip-rule="evenodd"
         fill-rule="evenodd"
         fill="#212121" />
      <path
         d="M269.172,103.428     c-4.14,4.788-6.264,7.812-6.372,9.216c-0.107,1.296,4.104-0.864,5.688-1.08c1.476-0.288,2.7-0.36,3.527-0.36l-0.72-9.216     C270.612,102.456,269.892,102.924,269.172,103.428z"
         i:knockout="Off"
         id="path3438"
         clip-rule="evenodd"
         fill-rule="evenodd"
         fill="#212121" />
      <path
         d="M170.352,214.633     c0.216-4.609,0.54-8.605,2.484-13.105c1.728-4.535,3.564-9.143,8.856-13.824c5.4-4.859,22.428-13.211,23.041-14.508     c0.252-1.26-14.257,3.744-20.196,7.092c-5.94,3.313-11.592,7.236-14.868,12.744c-3.276,5.4-4.86,13.861-4.608,19.836     c0.324,5.869,4.968,15.229,6.012,15.59C171.828,228.637,170.1,219.168,170.352,214.633z"
         i:knockout="Off"
         id="path3440"
         clip-rule="evenodd"
         fill-rule="evenodd"
         fill="#212121" />
      <path
         d="M225.972,174.24l16.633,9.936l-51.337,53.461     c-0.756-7.885,0-14.797,2.124-20.881c2.124-6.119,8.028-11.268,10.62-15.588c2.484-4.428,1.404-7.848,4.248-10.26     c2.772-2.447,10.225-2.52,12.061-4.248c1.655-1.873-2.772-4.32-1.765-6.373C219.456,178.199,221.976,176.184,225.972,174.24z"
         i:knockout="Off"
         id="path3442"
         clip-rule="evenodd"
         fill-rule="evenodd"
         fill="#212121" />
      <path
         d="M44.28,14.148c0,2.556,3.42,4.608,7.632,4.608     c4.176,0,7.596-2.052,7.596-4.608c0-2.52-3.42-4.608-7.596-4.608C47.7,9.54,44.28,11.628,44.28,14.148z"
         i:knockout="Off"
         id="path3444"
         clip-rule="evenodd"
         fill-rule="evenodd"
         fill="#212121" />
      <path
         d="M65.232,207.035     c5.328-8.711,10.26-14.471,15.084-17.135c4.716-2.701,7.56,0.539,13.392,0.828c5.76,0.18,20.844-1.908,21.348,0.396     c0.324,2.34-14.436,9.07-18.864,13.391c-4.5,4.213-7.092,8.029-7.92,11.736C80.604,213.191,72.936,210.133,65.232,207.035z"
         i:knockout="Off"
         id="path3446"
         clip-rule="evenodd"
         fill-rule="evenodd"
         fill="#212121" />
    </g>
  </g>
  <g
     inkscape:label="Object Highlight"
     id="g4270"
     inkscape:groupmode="layer"
     style="display:inline">
    <path
       d="m 121.97944,89.397227 q 0,1.063903 -4.54184,-0.658205 -5.39345,-2.045005 -7.66437,-0.187195 -2.27092,1.739598 -2.27092,7.768383 0,2.364229 0.28386,7.20032 0.28387,4.83609 0.28387,7.20032 0,12.17578 -8.79983,14.86798 -3.974117,1.21202 -8.657896,0.14536 -0.709664,-0.15086 -0.709664,0.20377 0,0.47285 0.851596,0.79574 3.406386,1.40979 7.522434,5.68932 9.79336,9.9785 9.79336,20.85396 0,2.60065 -0.28387,7.57611 -0.28386,4.97546 -0.28386,7.57612 0,12.05757 8.2321,14.94246 l 3.40638,1.17337 q 2.55479,0.85048 2.55479,2.03259 0,1.18212 -3.97412,-0.32473 -5.25151,-1.99118 -8.94176,-4.4543 -5.96117,-4.03344 -9.50949,-9.98909 -3.548318,-5.95564 -3.548318,-11.98443 0,-2.60065 0.283865,-7.81253 0.425798,-5.15807 0.425798,-7.75872 0,-8.15659 -3.264452,-12.23144 -3.12252,-4.13923 -7.238569,-5.93632 -3.12252,-1.53858 -3.12252,-2.83891 0,-1.18211 3.12252,-0.35279 6.103107,1.4866 8.515963,-1.26309 2.128991,-2.38447 2.128991,-9.95 0,-3.66456 -0.425798,-8.19983 -0.425798,-4.653483 -0.425798,-7.135924 0,-5.910574 3.832183,-9.304215 3.832185,-3.393641 9.651425,-2.723938 3.26445,0.410286 9.79336,2.885817 2.98058,1.130134 2.98058,2.194037 z"
       style="font-style:normal;font-variant:normal;font-weight:normal;font-stretch:normal;font-size:180px;line-height:125%;font-family:'Bodoni 72';-inkscape-font-specification:'Bodoni 72, ';letter-spacing:0px;word-spacing:0px;fill:#a1a1a1;fill-opacity:1;stroke:none;stroke-width:1px;stroke-linecap:butt;stroke-linejoin:miter;stroke-opacity:1"
       id="path4274"
       inkscape:connector-curvature="0" />
    <path
       d="m 174.36003,158.92791 q 0,1.18212 -3.12252,0.3528 -5.81924,-1.49718 -8.37403,1.3169 -2.12899,2.38447 -2.12899,9.95 0,2.48244 0.28387,7.55496 0.42579,5.12633 0.42579,7.60877 0,6.02878 -3.83218,9.42242 -3.83218,3.39364 -9.65142,2.72394 -3.12252,-0.35647 -9.79336,-2.88581 -3.12252,-1.18395 -3.12252,-2.24786 0,-1.0639 4.68378,0.71202 5.53537,2.09882 7.66437,0.1872 2.27092,-1.7396 2.27092,-8.00481 0,-1.77317 -0.28387,-7.43674 -0.28386,-5.66357 -0.28386,-6.60926 0,-12.41221 8.65789,-15.04001 3.97412,-1.21202 8.79983,-0.0916 0.70967,0.0327 0.70967,-0.20376 0,-0.47285 -0.8516,-0.79574 -3.40639,-1.4098 -7.52243,-5.68932 -9.79336,-10.09672 -9.79336,-20.97217 0,-2.60066 0.28386,-7.57612 0.28387,-4.97546 0.28387,-7.57611 0,-12.05757 -8.37403,-14.878075 l -3.26445,-1.119554 q -2.55479,-0.850475 -2.55479,-2.03259 0,-1.182115 3.69025,0.217099 5.39344,2.045004 9.22562,4.56194 6.10311,3.96904 9.5095,9.87087 3.54831,5.95564 3.54831,12.22085 0,2.60065 -0.42579,7.75872 -0.28387,5.21189 -0.28387,7.81254 0,8.03838 3.12252,12.17762 3.26445,4.07484 7.23857,5.81811 3.26445,1.47418 3.26445,2.89272 z"
       style="font-style:normal;font-variant:normal;font-weight:normal;font-stretch:normal;font-size:180px;line-height:125%;font-family:'Bodoni 72';-inkscape-font-specification:'Bodoni 72, ';letter-spacing:0px;word-spacing:0px;fill:#a1a1a1;fill-opacity:1;stroke:none;stroke-width:1px;stroke-linecap:butt;stroke-linejoin:miter;stroke-opacity:1"
       id="path4276"
       inkscape:connector-curvature="0" />
    <flowRoot
       style="font-style:normal;font-weight:normal;font-size:40px;line-height:125%;font-family:sans-serif;letter-spacing:0px;word-spacing:0px;fill:#000000;fill-opacity:1;stroke:none;stroke-width:1px;stroke-linecap:butt;stroke-linejoin:miter;stroke-opacity:1"
       id="flowRoot4278"
       xml:space="preserve"><flowRegion
         id="flowRegion4280"><rect
           y="70.069862"
           x="154.97435"
           height="62.179115"
           width="106.68295"
           id="rect4282" /></flowRegion><flowPara
         id="flowPara4284"></flowPara></flowRoot>  </g>
  <g
     inkscape:label="Object Lowlight"
     id="g4286"
     inkscape:groupmode="layer">
    <path
       d="m 121.42793,88.226141 q 0,1.063903 -4.54185,-0.658205 -5.39344,-2.045005 -7.66436,-0.187195 -2.27093,1.739598 -2.27093,7.768383 0,2.364229 0.28387,7.200316 0.28386,4.83609 0.28386,7.20032 0,12.17579 -8.799825,14.86798 -3.974116,1.21202 -8.657896,0.14537 -0.709664,-0.15087 -0.709664,0.20376 0,0.47285 0.851597,0.79574 3.406385,1.4098 7.522434,5.68932 9.793354,9.97851 9.793354,20.85396 0,2.60065 -0.28386,7.57612 -0.28387,4.97546 -0.28387,7.57611 0,12.05757 8.2321,14.94247 l 3.40639,1.17337 q 2.55478,0.85047 2.55478,2.03259 0,1.18211 -3.97411,-0.32473 -5.25151,-1.99119 -8.94176,-4.45431 -5.96118,-4.03344 -9.509495,-9.98908 -3.548318,-5.95565 -3.548318,-11.98443 0,-2.60065 0.283865,-7.81254 0.425799,-5.15807 0.425799,-7.75872 0,-8.15659 -3.264453,-12.23143 -3.12252,-4.13924 -7.238569,-5.93632 -3.122519,-1.53859 -3.122519,-2.83891 0,-1.18212 3.122519,-0.3528 6.103107,1.4866 8.515964,-1.26308 2.12899,-2.38447 2.12899,-9.95001 0,-3.66455 -0.425798,-8.19983 -0.425798,-4.653479 -0.425798,-7.13592 0,-5.910574 3.832183,-9.304215 3.83218,-3.393641 9.65143,-2.723938 3.26445,0.410286 9.79335,2.885817 2.98059,1.130134 2.98059,2.194037 z"
       style="font-style:normal;font-variant:normal;font-weight:normal;font-stretch:normal;font-size:180px;line-height:125%;font-family:'Bodoni 72';-inkscape-font-specification:'Bodoni 72, ';letter-spacing:0px;word-spacing:0px;fill:#212121;fill-opacity:1;stroke:none;stroke-width:1px;stroke-linecap:butt;stroke-linejoin:miter;stroke-opacity:1"
       id="path4290"
       inkscape:connector-curvature="0" />
    <path
       d="m 173.80852,157.75683 q 0,1.18211 -3.12252,0.3528 -5.81924,-1.49719 -8.37403,1.31689 -2.12899,2.38447 -2.12899,9.95001 0,2.48244 0.28386,7.55495 0.4258,5.12633 0.4258,7.60877 0,6.02879 -3.83218,9.42243 -3.83219,3.39364 -9.65143,2.72394 -3.12252,-0.35647 -9.79336,-2.88582 -3.12252,-1.18395 -3.12252,-2.24785 0,-1.06391 4.68378,0.71202 5.53538,2.09882 7.66437,0.18719 2.27092,-1.7396 2.27092,-8.0048 0,-1.77318 -0.28386,-7.43675 -0.28387,-5.66357 -0.28387,-6.60926 0,-12.4122 8.6579,-15.04001 3.97412,-1.21201 8.79983,-0.0915 0.70966,0.0326 0.70966,-0.20377 0,-0.47284 -0.85159,-0.79574 -3.40639,-1.40979 -7.52244,-5.68932 -9.79336,-10.09671 -9.79336,-20.97217 0,-2.60065 0.28387,-7.57611 0.28386,-4.97547 0.28386,-7.57612 0,-12.05757 -8.37403,-14.878071 l -3.26445,-1.119554 q -2.55479,-0.850475 -2.55479,-2.03259 0,-1.182115 3.69025,0.217099 5.39345,2.045004 9.22563,4.561937 6.10311,3.969039 9.50949,9.870869 3.54832,5.95565 3.54832,12.22086 0,2.60065 -0.4258,7.75872 -0.28386,5.21188 -0.28386,7.81253 0,8.03838 3.12252,12.17762 3.26445,4.07484 7.23856,5.81811 3.26446,1.47419 3.26446,2.89273 z"
       style="font-style:normal;font-variant:normal;font-weight:normal;font-stretch:normal;font-size:180px;line-height:125%;font-family:'Bodoni 72';-inkscape-font-specification:'Bodoni 72, ';letter-spacing:0px;word-spacing:0px;fill:#212121;fill-opacity:1;stroke:none;stroke-width:1px;stroke-linecap:butt;stroke-linejoin:miter;stroke-opacity:1"
       id="path4292"
       inkscape:connector-curvature="0" />
    <flowRoot
       style="fill:black;stroke:none;stroke-opacity:1;stroke-width:1px;stroke-linejoin:miter;stroke-linecap:butt;fill-opacity:1;font-family:sans-serif;font-style:normal;font-weight:normal;font-size:40px;line-height:125%;letter-spacing:0px;word-spacing:0px"
       id="flowRoot4294"
       xml:space="preserve"><flowRegion
         id="flowRegion4296"><rect
           y="70.069862"
           x="154.97435"
           height="62.179115"
           width="106.68295"
           id="rect4298" /></flowRegion><flowPara
         id="flowPara4300"></flowPara></flowRoot>  </g>
</svg>
